<svg xmlns="http://www.w3.org/2000/svg" xmlns:xlink="http://www.w3.org/1999/xlink" width="25" height="25"><defs><linearGradient id="a"><stop offset="0" stop-color="#16ff6a"/><stop offset="1" stop-color="#0090a5"/></linearGradient><linearGradient id="b" x1="1073.403" x2="1097.116" y1="516.451" y2="544.308" gradientTransform="translate(-856.183 614.331) scale(.80097)" gradientUnits="userSpaceOnUse" xlink:href="#a"/></defs><g transform="translate(0 -1027.362)"><rect width="25" height="25" y="1027.362" fill="url(#b)" rx="5.283" ry="5.283"/><path fill="#fff" style="text-indent:0;text-align:start;line-height:normal;text-transform:none;block-progression:tb" d="m10.313 6.063-4.126.593 1.532 1.5a7.047 7.047 0 0 0-1.907 3.938 6.967 6.967 0 0 0 .875 4.406 7 7 0 0 0 7.875 3.25A6.99 6.99 0 0 0 19.75 13a6.99 6.99 0 0 0-5.188-6.75l-.25.969A5.97 5.97 0 0 1 18.75 13a5.97 5.97 0 0 1-4.438 5.781 5.989 5.989 0 0 1-5.906-9.906l1.313 1.313.156-1 .438-3.126z" color="#000" font-family="sans-serif" font-weight="400" overflow="visible" transform="translate(0 1027.362)"/></g></svg>